G75*
%MOIN*%
%OFA0B0*%
%FSLAX24Y24*%
%IPPOS*%
%LPD*%
%AMOC8*
5,1,8,0,0,1.08239X$1,22.5*
%
%ADD10C,0.0000*%
%ADD11C,0.0100*%
%ADD12C,0.0600*%
%ADD13R,0.0709X0.0630*%
%ADD14C,0.0660*%
%ADD15R,0.1575X0.0394*%
%ADD16C,0.1502*%
%ADD17R,0.0800X0.0800*%
%ADD18C,0.0800*%
%ADD19R,0.0630X0.0787*%
%ADD20C,0.0360*%
D10*
X000150Y000150D02*
X000150Y020146D01*
X020020Y020146D01*
X020020Y000150D01*
X000150Y000150D01*
X001025Y001650D02*
X001027Y001700D01*
X001033Y001749D01*
X001043Y001798D01*
X001056Y001845D01*
X001074Y001892D01*
X001095Y001937D01*
X001119Y001980D01*
X001147Y002021D01*
X001178Y002060D01*
X001212Y002096D01*
X001249Y002130D01*
X001289Y002160D01*
X001330Y002187D01*
X001374Y002211D01*
X001419Y002231D01*
X001466Y002247D01*
X001514Y002260D01*
X001563Y002269D01*
X001613Y002274D01*
X001662Y002275D01*
X001712Y002272D01*
X001761Y002265D01*
X001810Y002254D01*
X001857Y002240D01*
X001903Y002221D01*
X001948Y002199D01*
X001991Y002174D01*
X002031Y002145D01*
X002069Y002113D01*
X002105Y002079D01*
X002138Y002041D01*
X002167Y002001D01*
X002193Y001959D01*
X002216Y001915D01*
X002235Y001869D01*
X002251Y001822D01*
X002263Y001773D01*
X002271Y001724D01*
X002275Y001675D01*
X002275Y001625D01*
X002271Y001576D01*
X002263Y001527D01*
X002251Y001478D01*
X002235Y001431D01*
X002216Y001385D01*
X002193Y001341D01*
X002167Y001299D01*
X002138Y001259D01*
X002105Y001221D01*
X002069Y001187D01*
X002031Y001155D01*
X001991Y001126D01*
X001948Y001101D01*
X001903Y001079D01*
X001857Y001060D01*
X001810Y001046D01*
X001761Y001035D01*
X001712Y001028D01*
X001662Y001025D01*
X001613Y001026D01*
X001563Y001031D01*
X001514Y001040D01*
X001466Y001053D01*
X001419Y001069D01*
X001374Y001089D01*
X001330Y001113D01*
X001289Y001140D01*
X001249Y001170D01*
X001212Y001204D01*
X001178Y001240D01*
X001147Y001279D01*
X001119Y001320D01*
X001095Y001363D01*
X001074Y001408D01*
X001056Y001455D01*
X001043Y001502D01*
X001033Y001551D01*
X001027Y001600D01*
X001025Y001650D01*
X003677Y012141D02*
X003679Y012188D01*
X003685Y012234D01*
X003695Y012280D01*
X003708Y012325D01*
X003726Y012368D01*
X003747Y012410D01*
X003771Y012450D01*
X003799Y012487D01*
X003830Y012522D01*
X003864Y012555D01*
X003900Y012584D01*
X003939Y012610D01*
X003980Y012633D01*
X004023Y012652D01*
X004067Y012668D01*
X004112Y012680D01*
X004158Y012688D01*
X004205Y012692D01*
X004251Y012692D01*
X004298Y012688D01*
X004344Y012680D01*
X004389Y012668D01*
X004433Y012652D01*
X004476Y012633D01*
X004517Y012610D01*
X004556Y012584D01*
X004592Y012555D01*
X004626Y012522D01*
X004657Y012487D01*
X004685Y012450D01*
X004709Y012410D01*
X004730Y012368D01*
X004748Y012325D01*
X004761Y012280D01*
X004771Y012234D01*
X004777Y012188D01*
X004779Y012141D01*
X004777Y012094D01*
X004771Y012048D01*
X004761Y012002D01*
X004748Y011957D01*
X004730Y011914D01*
X004709Y011872D01*
X004685Y011832D01*
X004657Y011795D01*
X004626Y011760D01*
X004592Y011727D01*
X004556Y011698D01*
X004517Y011672D01*
X004476Y011649D01*
X004433Y011630D01*
X004389Y011614D01*
X004344Y011602D01*
X004298Y011594D01*
X004251Y011590D01*
X004205Y011590D01*
X004158Y011594D01*
X004112Y011602D01*
X004067Y011614D01*
X004023Y011630D01*
X003980Y011649D01*
X003939Y011672D01*
X003900Y011698D01*
X003864Y011727D01*
X003830Y011760D01*
X003799Y011795D01*
X003771Y011832D01*
X003747Y011872D01*
X003726Y011914D01*
X003708Y011957D01*
X003695Y012002D01*
X003685Y012048D01*
X003679Y012094D01*
X003677Y012141D01*
X003677Y017259D02*
X003679Y017306D01*
X003685Y017352D01*
X003695Y017398D01*
X003708Y017443D01*
X003726Y017486D01*
X003747Y017528D01*
X003771Y017568D01*
X003799Y017605D01*
X003830Y017640D01*
X003864Y017673D01*
X003900Y017702D01*
X003939Y017728D01*
X003980Y017751D01*
X004023Y017770D01*
X004067Y017786D01*
X004112Y017798D01*
X004158Y017806D01*
X004205Y017810D01*
X004251Y017810D01*
X004298Y017806D01*
X004344Y017798D01*
X004389Y017786D01*
X004433Y017770D01*
X004476Y017751D01*
X004517Y017728D01*
X004556Y017702D01*
X004592Y017673D01*
X004626Y017640D01*
X004657Y017605D01*
X004685Y017568D01*
X004709Y017528D01*
X004730Y017486D01*
X004748Y017443D01*
X004761Y017398D01*
X004771Y017352D01*
X004777Y017306D01*
X004779Y017259D01*
X004777Y017212D01*
X004771Y017166D01*
X004761Y017120D01*
X004748Y017075D01*
X004730Y017032D01*
X004709Y016990D01*
X004685Y016950D01*
X004657Y016913D01*
X004626Y016878D01*
X004592Y016845D01*
X004556Y016816D01*
X004517Y016790D01*
X004476Y016767D01*
X004433Y016748D01*
X004389Y016732D01*
X004344Y016720D01*
X004298Y016712D01*
X004251Y016708D01*
X004205Y016708D01*
X004158Y016712D01*
X004112Y016720D01*
X004067Y016732D01*
X004023Y016748D01*
X003980Y016767D01*
X003939Y016790D01*
X003900Y016816D01*
X003864Y016845D01*
X003830Y016878D01*
X003799Y016913D01*
X003771Y016950D01*
X003747Y016990D01*
X003726Y017032D01*
X003708Y017075D01*
X003695Y017120D01*
X003685Y017166D01*
X003679Y017212D01*
X003677Y017259D01*
X001025Y018650D02*
X001027Y018700D01*
X001033Y018749D01*
X001043Y018798D01*
X001056Y018845D01*
X001074Y018892D01*
X001095Y018937D01*
X001119Y018980D01*
X001147Y019021D01*
X001178Y019060D01*
X001212Y019096D01*
X001249Y019130D01*
X001289Y019160D01*
X001330Y019187D01*
X001374Y019211D01*
X001419Y019231D01*
X001466Y019247D01*
X001514Y019260D01*
X001563Y019269D01*
X001613Y019274D01*
X001662Y019275D01*
X001712Y019272D01*
X001761Y019265D01*
X001810Y019254D01*
X001857Y019240D01*
X001903Y019221D01*
X001948Y019199D01*
X001991Y019174D01*
X002031Y019145D01*
X002069Y019113D01*
X002105Y019079D01*
X002138Y019041D01*
X002167Y019001D01*
X002193Y018959D01*
X002216Y018915D01*
X002235Y018869D01*
X002251Y018822D01*
X002263Y018773D01*
X002271Y018724D01*
X002275Y018675D01*
X002275Y018625D01*
X002271Y018576D01*
X002263Y018527D01*
X002251Y018478D01*
X002235Y018431D01*
X002216Y018385D01*
X002193Y018341D01*
X002167Y018299D01*
X002138Y018259D01*
X002105Y018221D01*
X002069Y018187D01*
X002031Y018155D01*
X001991Y018126D01*
X001948Y018101D01*
X001903Y018079D01*
X001857Y018060D01*
X001810Y018046D01*
X001761Y018035D01*
X001712Y018028D01*
X001662Y018025D01*
X001613Y018026D01*
X001563Y018031D01*
X001514Y018040D01*
X001466Y018053D01*
X001419Y018069D01*
X001374Y018089D01*
X001330Y018113D01*
X001289Y018140D01*
X001249Y018170D01*
X001212Y018204D01*
X001178Y018240D01*
X001147Y018279D01*
X001119Y018320D01*
X001095Y018363D01*
X001074Y018408D01*
X001056Y018455D01*
X001043Y018502D01*
X001033Y018551D01*
X001027Y018600D01*
X001025Y018650D01*
X011600Y014650D02*
X011602Y014700D01*
X011608Y014750D01*
X011618Y014800D01*
X011631Y014848D01*
X011648Y014896D01*
X011669Y014942D01*
X011693Y014986D01*
X011721Y015028D01*
X011752Y015068D01*
X011786Y015105D01*
X011823Y015140D01*
X011862Y015171D01*
X011903Y015200D01*
X011947Y015225D01*
X011993Y015247D01*
X012040Y015265D01*
X012088Y015279D01*
X012137Y015290D01*
X012187Y015297D01*
X012237Y015300D01*
X012288Y015299D01*
X012338Y015294D01*
X012388Y015285D01*
X012436Y015273D01*
X012484Y015256D01*
X012530Y015236D01*
X012575Y015213D01*
X012618Y015186D01*
X012658Y015156D01*
X012696Y015123D01*
X012731Y015087D01*
X012764Y015048D01*
X012793Y015007D01*
X012819Y014964D01*
X012842Y014919D01*
X012861Y014872D01*
X012876Y014824D01*
X012888Y014775D01*
X012896Y014725D01*
X012900Y014675D01*
X012900Y014625D01*
X012896Y014575D01*
X012888Y014525D01*
X012876Y014476D01*
X012861Y014428D01*
X012842Y014381D01*
X012819Y014336D01*
X012793Y014293D01*
X012764Y014252D01*
X012731Y014213D01*
X012696Y014177D01*
X012658Y014144D01*
X012618Y014114D01*
X012575Y014087D01*
X012530Y014064D01*
X012484Y014044D01*
X012436Y014027D01*
X012388Y014015D01*
X012338Y014006D01*
X012288Y014001D01*
X012237Y014000D01*
X012187Y014003D01*
X012137Y014010D01*
X012088Y014021D01*
X012040Y014035D01*
X011993Y014053D01*
X011947Y014075D01*
X011903Y014100D01*
X011862Y014129D01*
X011823Y014160D01*
X011786Y014195D01*
X011752Y014232D01*
X011721Y014272D01*
X011693Y014314D01*
X011669Y014358D01*
X011648Y014404D01*
X011631Y014452D01*
X011618Y014500D01*
X011608Y014550D01*
X011602Y014600D01*
X011600Y014650D01*
X018025Y018650D02*
X018027Y018700D01*
X018033Y018749D01*
X018043Y018798D01*
X018056Y018845D01*
X018074Y018892D01*
X018095Y018937D01*
X018119Y018980D01*
X018147Y019021D01*
X018178Y019060D01*
X018212Y019096D01*
X018249Y019130D01*
X018289Y019160D01*
X018330Y019187D01*
X018374Y019211D01*
X018419Y019231D01*
X018466Y019247D01*
X018514Y019260D01*
X018563Y019269D01*
X018613Y019274D01*
X018662Y019275D01*
X018712Y019272D01*
X018761Y019265D01*
X018810Y019254D01*
X018857Y019240D01*
X018903Y019221D01*
X018948Y019199D01*
X018991Y019174D01*
X019031Y019145D01*
X019069Y019113D01*
X019105Y019079D01*
X019138Y019041D01*
X019167Y019001D01*
X019193Y018959D01*
X019216Y018915D01*
X019235Y018869D01*
X019251Y018822D01*
X019263Y018773D01*
X019271Y018724D01*
X019275Y018675D01*
X019275Y018625D01*
X019271Y018576D01*
X019263Y018527D01*
X019251Y018478D01*
X019235Y018431D01*
X019216Y018385D01*
X019193Y018341D01*
X019167Y018299D01*
X019138Y018259D01*
X019105Y018221D01*
X019069Y018187D01*
X019031Y018155D01*
X018991Y018126D01*
X018948Y018101D01*
X018903Y018079D01*
X018857Y018060D01*
X018810Y018046D01*
X018761Y018035D01*
X018712Y018028D01*
X018662Y018025D01*
X018613Y018026D01*
X018563Y018031D01*
X018514Y018040D01*
X018466Y018053D01*
X018419Y018069D01*
X018374Y018089D01*
X018330Y018113D01*
X018289Y018140D01*
X018249Y018170D01*
X018212Y018204D01*
X018178Y018240D01*
X018147Y018279D01*
X018119Y018320D01*
X018095Y018363D01*
X018074Y018408D01*
X018056Y018455D01*
X018043Y018502D01*
X018033Y018551D01*
X018027Y018600D01*
X018025Y018650D01*
X018025Y001650D02*
X018027Y001700D01*
X018033Y001749D01*
X018043Y001798D01*
X018056Y001845D01*
X018074Y001892D01*
X018095Y001937D01*
X018119Y001980D01*
X018147Y002021D01*
X018178Y002060D01*
X018212Y002096D01*
X018249Y002130D01*
X018289Y002160D01*
X018330Y002187D01*
X018374Y002211D01*
X018419Y002231D01*
X018466Y002247D01*
X018514Y002260D01*
X018563Y002269D01*
X018613Y002274D01*
X018662Y002275D01*
X018712Y002272D01*
X018761Y002265D01*
X018810Y002254D01*
X018857Y002240D01*
X018903Y002221D01*
X018948Y002199D01*
X018991Y002174D01*
X019031Y002145D01*
X019069Y002113D01*
X019105Y002079D01*
X019138Y002041D01*
X019167Y002001D01*
X019193Y001959D01*
X019216Y001915D01*
X019235Y001869D01*
X019251Y001822D01*
X019263Y001773D01*
X019271Y001724D01*
X019275Y001675D01*
X019275Y001625D01*
X019271Y001576D01*
X019263Y001527D01*
X019251Y001478D01*
X019235Y001431D01*
X019216Y001385D01*
X019193Y001341D01*
X019167Y001299D01*
X019138Y001259D01*
X019105Y001221D01*
X019069Y001187D01*
X019031Y001155D01*
X018991Y001126D01*
X018948Y001101D01*
X018903Y001079D01*
X018857Y001060D01*
X018810Y001046D01*
X018761Y001035D01*
X018712Y001028D01*
X018662Y001025D01*
X018613Y001026D01*
X018563Y001031D01*
X018514Y001040D01*
X018466Y001053D01*
X018419Y001069D01*
X018374Y001089D01*
X018330Y001113D01*
X018289Y001140D01*
X018249Y001170D01*
X018212Y001204D01*
X018178Y001240D01*
X018147Y001279D01*
X018119Y001320D01*
X018095Y001363D01*
X018074Y001408D01*
X018056Y001455D01*
X018043Y001502D01*
X018033Y001551D01*
X018027Y001600D01*
X018025Y001650D01*
D11*
X020150Y000150D02*
X000150Y000150D01*
X000150Y020150D01*
X020150Y020150D01*
X020150Y000150D01*
X013650Y007650D02*
X013650Y008150D01*
X013701Y008099D01*
X015650Y008099D01*
X015650Y009201D02*
X017150Y009201D01*
X018150Y009201D01*
X018150Y010650D01*
X018150Y011650D02*
X018150Y013650D01*
X018150Y011650D02*
X016150Y011650D01*
X014150Y009650D01*
X013650Y009650D01*
X013650Y008150D01*
X013650Y007650D02*
X012650Y006650D01*
X011650Y006650D01*
X009650Y009650D02*
X009650Y011150D01*
X009650Y009650D02*
X002650Y009650D01*
X002650Y007681D02*
X007181Y007681D01*
X007650Y008150D01*
X007150Y007650D01*
X007150Y007150D01*
X007650Y006650D01*
X007650Y012650D02*
X009650Y012650D01*
X009650Y013650D01*
X009201Y013650D01*
X009650Y013650D02*
X009650Y015150D01*
X009201Y015150D01*
X008099Y015150D02*
X008043Y015094D01*
X006000Y015094D01*
X006000Y014306D02*
X006994Y014306D01*
X007650Y013650D01*
X008099Y013650D01*
X007650Y012650D02*
X007000Y013300D01*
X006000Y013300D01*
X006000Y013322D01*
X006000Y016078D02*
X008078Y016078D01*
X010150Y018150D01*
X016650Y018150D01*
X018150Y016650D01*
X018150Y015650D01*
X019150Y015650D01*
X019150Y011150D01*
X019650Y010650D01*
X019650Y008650D01*
X019150Y008150D01*
X018701Y008150D01*
X018650Y008099D01*
X018650Y008150D01*
X018650Y008099D02*
X017150Y008099D01*
X018150Y009201D02*
X018650Y009201D01*
D12*
X018450Y013650D02*
X017850Y013650D01*
X017850Y014650D02*
X018450Y014650D01*
X018450Y015650D02*
X017850Y015650D01*
D13*
X017150Y009201D03*
X017150Y008099D03*
X015650Y008099D03*
X015650Y009201D03*
X018650Y009201D03*
X018650Y008099D03*
D14*
X013650Y009650D03*
X013650Y011150D03*
X011650Y008150D03*
X011650Y006650D03*
X009650Y009650D03*
X009650Y011150D03*
X007650Y008150D03*
X007650Y006650D03*
D15*
X006000Y013322D03*
X006000Y014306D03*
X006000Y015094D03*
X006000Y016078D03*
D16*
X004228Y017259D03*
X004228Y012141D03*
D17*
X002650Y009650D03*
D18*
X002650Y007681D03*
D19*
X008099Y013650D03*
X009201Y013650D03*
X009201Y015150D03*
X008099Y015150D03*
D20*
X009650Y012650D03*
X018150Y010650D03*
M02*
