%
M48
M72
T01C0.0200
T02C0.0400
T03C0.0440
T04C0.0512
T05C0.1102
T06C0.1250
T07C0.1300
%
T01
X9650Y12650
X18150Y10650
T02
X18150Y13650
X18150Y14650
X18150Y15650
T03
X13650Y11150
X13650Y9650
X11650Y8150
X11650Y6650
X9650Y9650
X9650Y11150
X7650Y8150
X7650Y6650
T04
X2650Y7681
X2650Y9650
T05
X4228Y12141
X4228Y12141
X4228Y17259
X4228Y17259
T06
X1650Y1650
X1650Y18650
X18650Y18650
X18650Y1650
T07
X12250Y14650
M30
